# xmcd
#
# Track frame offsets:
#	150
#	12044
#	24208
#	41420
#	54897
#	69275
#	83972
#	97172
#	110507
#	125732
#	140069
#	151859
#	165284
#	176529
#
# Disc length: 2545 seconds
# Revision: 0
# Processed by: cddbd v1.5.2PL0 Copyright (c) Steve Scherf et al.
# Submitted via: dBpowerAMP V12.0
#
DISCID=a709ef0e
DTITLE=Various Artist - Street Walker Blues: Vintage Songs About Prostitution Volume 2
DYEAR=1935
DGENRE=Blues
TTITLE0=Lucille Bogan (Bessie Jackson) - Barbecue Bees
TTITLE1=Lil Johnson And Barrel House Annie - Ain't Gonna Give It Away
TTITLE2=Bertha 'Chippie' Hill - Street Walker Blues
TTITLE3=Lonnie Johnson - Love Is Just A Song (Your Love Is Cold)
TTITLE4=Maggie Jones - Good Time Flat Blues
TTITLE5=Lucille Bogan (Bessie Jackson) - Shave 'em Dry (2nd Version)
TTITLE6=Lovin' Sam Theard - She Skuffles That Ruff
TTITLE7=Georgia White - If You Can't Get Five, Take Two
TTITLE8=Clara Smith - Kitchen Mechanic Blues
TTITLE9=Bessie Smith - I've Got What It Takes (But It Breaks My Heart To Give It Away)
TTITLE10=Ma Rainey - Hustlin' Blues
TTITLE11=Clara Smith - For Sale (Hannah Johnsons Big Jack Ass)
TTITLE12=Irene Scruggs - Must Get Mine in Front
TTITLE13=Jimmy Rushing - Tricks Ain't Walkin' No More
EXTD=
EXTT0=
EXTT1=
EXTT2=
EXTT3=
EXTT4=
EXTT5=
EXTT6=
EXTT7=
EXTT8=
EXTT9=
EXTT10=
EXTT11=
EXTT12=
EXTT13=
PLAYORDER=
